<svg width="216.00000000000003" height="28.000000000000004" xmlns="http://www.w3.org/2000/svg">
 <metadata id="metadata8">image/svg+xml</metadata>

 <g>
  <title>background</title>
  <rect x="-1" y="-1" width="218" height="30" id="canvas_background" fill="none"/>
 </g>
 <g>
  <title>Layer 1</title>
  <path id="path28" d="m150.30859,4.63144c-1.77867,1.49733 -3.34667,3.16533 -4.27467,5.32933c1.93467,-1.36533 3.48533,-3.03867 4.27467,-5.32933zm21.81333,2.76c-2.59467,1.18933 -4.95333,2.65733 -7.07333,5.064c3.47467,-1.264 5.83333,-2.94533 7.07333,-5.064zm22.39067,11.63067c1.464,1.54 6.74667,3.524 8.83867,3.328c-2.51067,-2.33333 -5.61867,-2.84267 -8.83867,-3.328zm5.996,-10.83067c-3.15733,1.53333 -6.2,5.12 -6.484,7.93467c2.71333,-2.33333 4.82533,-4.95067 6.484,-7.93467zm-63.71867,-5.55067c-3.01867,2.01067 -5.288,4.628 -6.35867,8.17333c2.8,-2.176 4.90533,-4.90267 6.35867,-8.17333zm43.524,11.67467c2.80933,-2.27733 4.87867,-5.08533 6.16533,-8.45733c-3.216,1.98533 -4.83733,5.11733 -6.16533,8.45733zm11.05867,10.44667c-2.76267,-3.92 -6.824,-4.60667 -10.66133,-5.71733c3.09733,2.51067 6.30667,4.80533 10.66133,5.71733zm-47.95867,-0.57867c-3.692,-3.20933 -8.24267,-4.28667 -12.84133,-5.24667c3.608,3.37467 8.04267,4.75333 12.84133,5.24667zm12.98933,-0.72667c-1.57333,-4.24 -7.004,-7.05067 -10.72533,-6.89467c2.72,3.49067 6.53333,5.18 10.72533,6.89467zm6.58933,-6.09867c0.692,3.26267 7.6,7.90133 11.40667,7.676c-3.128,-3.60933 -6.40533,-6.85867 -11.40667,-7.676zm-33.25333,-2.868c1.98,-0.15067 3.80133,-0.27067 5.62,-0.43067c1.824,-0.16133 3.65067,-0.28533 5.48133,-0.24267c0.77867,0.01867 1.24933,-0.212 1.56533,-0.95867c0.528,-1.24933 1.15867,-2.456 1.74267,-3.68267c1.59333,-3.34667 4.19733,-5.82133 7.01333,-8.11067c0.41867,-0.34133 0.88267,-0.6 1.42667,-0.252c0.528,0.33733 0.81467,0.82133 0.708,1.45733c-0.08667,0.51333 -0.208,1.024 -0.364,1.52c-1.21733,3.89867 -3.468,6.988 -7.07867,9.01067c-0.34533,0.19333 -0.77067,0.32133 -0.90133,0.764c0.1,0.28133 0.33733,0.23067 0.52933,0.232c4.91867,0.04667 9.81733,0.41333 14.704,0.93733c0.708,0.076 1.17467,-0.08 1.56667,-0.7c2.62533,-4.15867 6.35467,-7.00933 10.784,-9.01733c0.18933,-0.08667 0.37467,-0.18267 0.56667,-0.26533c0.61867,-0.268 1.236,-0.64667 1.88533,-0.064c0.58667,0.52533 0.76933,1.38 0.35733,2.31867c-0.944,2.14133 -2.29333,3.97733 -4.25467,5.31333c-1.66133,1.13333 -3.52,1.81467 -5.43733,2.36133c-0.24667,0.07067 -0.49067,0.15067 -0.74133,0.228c0.228,0.464 0.67467,0.344 1.016,0.38c3.532,0.39067 7.06533,0.76667 10.60267,1.11067c1.24533,0.12267 1.17733,0.052 1.61867,-1.172c1.636,-4.54 3.76933,-8.748 8.03733,-11.44667c0.13333,-0.084 0.26,-0.17867 0.39467,-0.25867c0.57467,-0.34133 1.12933,-0.85467 1.85067,-0.348c0.696,0.48667 0.76667,1.20133 0.63067,1.964c-0.18667,1.04 -0.62533,1.99467 -1.06,2.94133c-1.552,3.38667 -3.66267,6.32533 -6.88933,8.30933c0.21867,0.564 0.64667,0.352 0.96,0.36933c2.97867,0.15867 5.95867,0.112 8.936,-0.03867c1.31067,-0.06667 1.35733,-0.08267 1.71733,-1.35333c1.30667,-4.608 4.628,-7.45333 8.52267,-9.792c0.89333,-0.53733 1.716,-0.03733 1.86133,1.052c0.08667,0.65067 -0.15867,1.244 -0.40533,1.816c-1.04267,2.42533 -2.48133,4.58933 -4.34667,6.46533c-0.216,0.21867 -0.42133,0.44933 -0.624,0.68133c-0.028,0.03067 -0.01333,0.096 -0.028,0.22533c3.32133,-0.56667 6.52533,-1.464 9.66,-2.62933c0.508,-0.188 0.688,-0.46933 0.75067,-1.02133c0.332,-2.97867 2.32533,-4.20933 5.04933,-3.17067c2.42933,0.92533 3.16267,4.52267 1.26667,6.27467c-0.96,0.888 -2.11867,0.776 -3.25733,0.504c-0.66133,-0.15733 -1.28133,-0.484 -1.78267,-0.952c-0.41067,-0.38267 -0.788,-0.392 -1.27067,-0.16933c-3.34267,1.53733 -6.888,2.408 -10.50267,3.12533c0.11067,0.41867 0.472,0.28 0.69733,0.38133c0.23467,0.10533 0.50267,0.136 0.752,0.20933c2.36133,0.69467 4.42933,1.86533 5.99867,3.796c0.52,0.63733 1.248,1.39867 0.75733,2.228c-0.512,0.86933 -1.50267,0.47733 -2.29733,0.27867c-1.72133,-0.432 -3.43333,-0.90667 -5.08667,-1.564c-2.16133,-0.86267 -4.1,-2.06933 -5.73467,-3.74c-0.43867,-0.448 -0.852,-0.844 -1.59333,-0.82133c-1.87467,0.056 -3.752,0.01067 -5.796,0.00533c0.4,0.74133 0.97333,0.77067 1.41467,0.96c2.884,1.24533 5.07867,3.26133 6.732,5.9c0.13867,0.22 0.26933,0.45067 0.36267,0.692c0.22933,0.59333 -0.05867,0.892 -0.624,0.98c-0.42533,0.06667 -0.82533,-0.084 -1.22933,-0.188c-3.28133,-0.848 -6.284,-2.27333 -8.95467,-4.36c-1.48267,-1.15733 -2.92533,-2.36667 -4.35467,-3.59067c-0.456,-0.38933 -0.89733,-0.636 -1.516,-0.68933c-2.80933,-0.23867 -5.61467,-0.528 -8.44133,-0.80133c-0.05333,0.504 0.38667,0.58 0.64133,0.75333c3.036,2.05467 5.27733,4.89067 7.576,7.67067c0.164,0.19867 0.29733,0.43733 0.38667,0.67867c0.332,0.88667 -0.02,1.42133 -0.916,1.19733c-4.86667,-1.21467 -9.532,-2.84267 -12.90267,-6.876c-0.78133,-0.93467 -1.34667,-1.996 -1.72133,-3.14533c-0.18133,-0.55867 -0.45867,-0.948 -1.044,-1.01733c-3.14933,-0.36533 -6.30933,-0.508 -9.51467,-0.688c0.08667,0.46 0.36933,0.51733 0.584,0.62267c3.404,1.65333 5.27733,4.64533 6.89867,7.86133c0.19467,0.38533 0.34533,0.83067 0.064,1.188c-0.30533,0.38667 -0.784,0.25467 -1.168,0.08933c-4.772,-2.03067 -9.60533,-3.996 -12.75733,-8.444c-0.78933,-1.11333 -1.70533,-1.456 -3.03333,-1.41867c-3.97067,0.11067 -7.928,0.33733 -12.07333,0.77467c0.59067,0.41733 1.10933,0.44267 1.60667,0.53333c3.19867,0.58267 6.31067,1.432 9.24133,2.88c2.09867,1.036 3.87867,2.45733 5.37467,4.24267c0.43467,0.52 1.00267,1.096 0.58933,1.79867c-0.36133,0.61333 -1.10667,0.48933 -1.72667,0.4c-2.644,-0.38267 -5.23733,-0.97067 -7.724,-1.97333c-1.35867,-0.548 -2.664,-1.204 -3.95067,-1.90133c-1.67733,-0.90667 -3.15733,-2.072 -4.30533,-3.588c-0.55867,-0.73733 -1.39067,-1.07733 -1.996,-1.72c-0.27867,-0.29733 -0.69867,-0.15467 -1.04933,-0.08933c-4.844,0.904 -9.344,2.62 -13.27733,5.66267c-0.704,0.544 -1.40267,1.1 -1.90133,1.85067c-0.21867,0.33067 -0.41733,0.616 -0.86667,0.38533c-0.45067,-0.228 -0.56933,-0.60533 -0.40267,-1.052c0.27867,-0.748 0.77867,-1.35333 1.33467,-1.91333c2.20933,-2.22 4.828,-3.816 7.70533,-5.00533c2.084,-0.86 4.24133,-1.50933 6.46533,-1.84267c1.22933,-0.18533 1.96933,-0.74533 2.42133,-1.868c0.58533,-1.45333 1.26533,-2.868 1.86533,-4.31467c1.21067,-2.916 3.07333,-5.33333 5.54267,-7.28c0.61067,-0.48133 1.27733,-0.91467 1.97067,-1.268c1.25733,-0.64133 2.28933,0.09467 2.18933,1.532c-0.05467,0.79867 -0.44667,1.49067 -0.78667,2.19867c-1.708,3.552 -4.17733,6.484 -7.24,8.93867c-0.284,0.228 -0.55867,0.468 -0.82667,0.71333c-0.06533,0.06 -0.088,0.164 -0.24133,0.472" fill-rule="nonzero" fill="#1d262d"/>
  <path id="path30" d="m69.86673,9.75411c-0.9172,-2.16933 -2.47493,-3.84533 -4.24573,-5.35333c0.77653,2.296 2.31813,3.97733 4.24573,5.35333zm-19.02867,2.392c-2.10667,-2.41867 -4.45667,-3.89867 -7.0452,-5.104c1.22853,2.12667 3.57707,3.82133 7.0452,5.104zm-38.35573,9.68667c2.09227,0.20533 7.3844,-1.75067 8.8568,-3.28c-3.2224,0.46533 -6.33227,0.96 -8.8568,3.28zm9.36053,-6.17467c-0.2688,-2.816 -3.2928,-6.41867 -6.44013,-7.97067c1.64213,2.99467 3.7396,5.62267 6.44013,7.97067zm63.6204,-4.96667c-1.05067,-3.54933 -3.30533,-6.18 -6.31267,-8.20667c1.43547,3.27733 3.526,6.016 6.31267,8.20667zm-56.0184,-5.26c1.26667,3.37867 3.32133,6.19867 6.1188,8.492c-1.30933,-3.34933 -2.91467,-6.48933 -6.1188,-8.492zm5.6948,13.21733c-3.84267,1.09067 -7.90733,1.75467 -10.69107,5.66c4.3588,-0.888 7.58173,-3.16667 10.69107,-5.66zm50.13827,0.16533c-4.60333,0.93333 -9.15907,1.988 -12.868,5.176c4.80107,-0.46667 9.24267,-1.82 12.868,-5.176zm-15.09133,-2.45733c-3.72093,-0.17733 -9.16613,2.604 -10.76307,6.83733c4.2016,-1.692 8.024,-3.36 10.76307,-6.83733zm-28.7672,8.31733c3.80627,0.244 10.73853,-4.356 11.44787,-7.61467c-5.0052,0.788 -8.30053,4.02 -11.44787,7.61467zm44.47853,-10.776c-0.268,-0.24667 -0.54,-0.488 -0.824,-0.71867c-3.048,-2.47067 -5.502,-5.416 -7.19053,-8.97733c-0.33533,-0.70933 -0.7244,-1.404 -0.77493,-2.20267c-0.09227,-1.43733 0.94373,-2.168 2.19787,-1.52c0.6912,0.35733 1.3552,0.79333 1.9636,1.28c2.45867,1.96 4.30933,4.38667 5.50267,7.308c0.59333,1.45067 1.26533,2.86933 1.84267,4.32533c0.44533,1.12667 1.18267,1.69067 2.412,1.88133c2.22133,0.34533 4.37467,1.00667 6.45467,1.87867c2.87067,1.20267 5.48,2.81333 7.67733,5.04667c0.55333,0.56267 1.05067,1.17067 1.32533,1.92c0.164,0.448 0.04267,0.824 -0.40933,1.052c-0.45067,0.22533 -0.648,-0.06 -0.86533,-0.39067c-0.49333,-0.756 -1.18933,-1.31467 -1.89067,-1.86267c-3.91733,-3.06267 -8.40667,-4.804 -13.24667,-5.73467c-0.34933,-0.06667 -0.76933,-0.21067 -1.04933,0.084c-0.608,0.64 -1.444,0.97467 -2.00533,1.70933c-1.156,1.50933 -2.64267,2.66667 -4.324,3.56533c-1.292,0.68933 -2.60013,1.33867 -3.962,1.87867c-2.49227,0.98933 -5.08867,1.56267 -7.73333,1.93067c-0.62093,0.08667 -1.36667,0.208 -1.72507,-0.408c-0.40933,-0.70667 0.16093,-1.27867 0.5984,-1.796c1.50627,-1.77733 3.29373,-3.18933 5.39747,-4.21333c2.94013,-1.432 6.05653,-2.264 9.25653,-2.83067c0.49867,-0.088 1.016,-0.11067 1.61067,-0.524c-4.14267,-0.45867 -8.09893,-0.708 -12.0688,-0.84c-1.32867,-0.044 -2.2468,0.29333 -3.0416,1.40133c-3.1772,4.43067 -8.0204,6.37067 -12.80267,8.376c-0.38493,0.16133 -0.864,0.292 -1.16667,-0.096c-0.2812,-0.35867 -0.12707,-0.80267 0.06933,-1.188c1.63853,-3.20667 3.52907,-6.18933 6.9416,-7.824c0.2156,-0.10267 0.49787,-0.16 0.58747,-0.62c-3.20573,0.164 -6.3676,0.28933 -9.5176,0.63733c-0.58653,0.06533 -0.86627,0.45333 -1.05053,1.01067c-0.3808,1.14667 -0.95267,2.20667 -1.73813,3.136c-3.39267,4.016 -8.06707,5.61867 -12.94,6.808c-0.89693,0.21867 -1.24587,-0.31867 -0.91,-1.204c0.09173,-0.24 0.22667,-0.47867 0.3912,-0.676c2.31307,-2.76933 4.57027,-5.592 7.6172,-7.63067c0.2568,-0.17067 0.69587,-0.244 0.6464,-0.74933c-2.8292,0.25867 -5.636,0.53333 -8.4464,0.75733c-0.61933,0.048 -1.062,0.292 -1.51973,0.68c-1.436,1.21467 -2.88547,2.416 -4.374,3.56533c-2.68173,2.072 -5.69267,3.48267 -8.9776,4.312c-0.4052,0.10267 -0.80573,0.25067 -1.23133,0.18267c-0.5656,-0.09333 -0.8504,-0.392 -0.61867,-0.984c0.09427,-0.24 0.22707,-0.46933 0.3656,-0.68933c1.6688,-2.63067 3.87453,-4.63467 6.76453,-5.864c0.44227,-0.18667 1.01613,-0.21333 1.4204,-0.95333c-2.04427,-0.00667 -3.92187,0.02933 -5.79587,-0.036c-0.74173,-0.02667 -1.1568,0.36667 -1.59747,0.81333c-1.64427,1.66133 -3.58893,2.85733 -5.7556,3.708c-1.6568,0.64933 -3.37147,1.11467 -5.0948,1.536c-0.7964,0.19333 -1.78813,0.58133 -2.2964,-0.29067c-0.48547,-0.832 0.2468,-1.588 0.7692,-2.22533c1.58027,-1.92 3.6548,-3.08 6.01933,-3.76133c0.25053,-0.07333 0.5188,-0.10133 0.75413,-0.20533c0.2256,-0.10133 0.586,0.04133 0.69947,-0.37867c-3.6104,-0.736 -7.15147,-1.62533 -10.48587,-3.18267c-0.48173,-0.224 -0.85947,-0.21733 -1.27133,0.164c-0.50427,0.464 -1.1256,0.788 -1.78707,0.94133c-1.14107,0.26667 -2.30053,0.372 -3.25627,-0.52133c-1.88587,-1.76267 -1.13333,-5.35467 1.30053,-6.268c2.72973,-1.02267 4.71667,0.21867 5.0328,3.19867c0.05893,0.55333 0.23813,0.83333 0.74587,1.02533c3.12813,1.18267 6.32653,2.09733 9.64427,2.68133c-0.01293,-0.128 0.00053,-0.19467 -0.026,-0.22667c-0.20267,-0.23067 -0.4052,-0.464 -0.6208,-0.68267c-1.8548,-1.88667 -3.2824,-4.05867 -4.31147,-6.49067c-0.2428,-0.57333 -0.48493,-1.16667 -0.3948,-1.81733c0.15,-1.088 0.97707,-1.584 1.86773,-1.04267c3.88067,2.36133 7.18693,5.224 8.4676,9.83867c0.3548,1.27333 0.4,1.28933 1.71093,1.36267c2.9772,0.168 5.95573,0.22933 8.936,0.088c0.31307,-0.01467 0.7396,0.19867 0.96093,-0.364c-3.21507,-2.00133 -5.30987,-4.952 -6.8432,-8.34667c-0.42973,-0.94933 -0.8636,-1.90667 -1.04373,-2.94667c-0.1328,-0.764 -0.05787,-1.47733 0.64,-1.96267c0.7256,-0.50267 1.27667,0.016 1.8496,0.36c0.13427,0.08 0.2604,0.17467 0.39267,0.26c4.25307,2.72267 6.364,6.94133 7.97493,11.49067c0.43547,1.22667 0.3672,1.296 1.61307,1.18133c3.53907,-0.32533 7.07493,-0.68267 10.60827,-1.05333c0.34173,-0.036 0.7876,0.088 1.01773,-0.376c-0.25053,-0.07733 -0.4948,-0.15867 -0.74053,-0.22933c-1.9136,-0.55867 -3.76827,-1.24933 -5.424,-2.392c-1.9532,-1.348 -3.29373,-3.18933 -4.22453,-5.33733c-0.40827,-0.94 -0.22027,-1.79467 0.36827,-2.316c0.6536,-0.58 1.26773,-0.196 1.8864,0.07333c0.19067,0.084 0.3756,0.18133 0.5652,0.26933c4.41813,2.032 8.1312,4.90267 10.7344,9.07467c0.38853,0.624 0.85413,0.78133 1.56147,0.70933c4.89053,-0.49733 9.79107,-0.83733 14.7104,-0.85733c0.19053,0 0.42853,0.05333 0.53067,-0.22933c-0.12867,-0.44267 -0.5536,-0.57333 -0.89787,-0.76933c-3.6,-2.04133 -5.83333,-5.144 -7.03027,-9.048c-0.152,-0.49733 -0.27027,-1.00933 -0.35467,-1.52267c-0.10307,-0.636 0.186,-1.11867 0.7156,-1.45333c0.5464,-0.34533 1.00787,-0.084 1.42507,0.26c2.8036,2.304 5.39427,4.79333 6.9692,8.14933c0.5776,1.22933 1.20053,2.44 1.72347,3.692c0.312,0.748 0.78067,0.98 1.55987,0.96667c1.83027,-0.03333 3.65627,0.1 5.48027,0.272c1.8172,0.17067 3.63853,0.3 5.6172,0.46133c-0.152,-0.308 -0.17467,-0.41333 -0.23867,-0.47333" fill-rule="nonzero" fill="#1d262d"/>
 </g>
</svg>