<svg width="172" height="19" xmlns="http://www.w3.org/2000/svg">
 <metadata id="metadata8">image/svg+xml</metadata>

 <g>
  <title>background</title>
  <rect fill="none" id="canvas_background" height="21" width="174" y="-1" x="-1"/>
 </g>
 <g>
  <title>Layer 1</title>
  <path fill="#1d262d" fill-rule="nonzero" d="m84.52908,6.90817c20.04533,-0.10667 40.09067,-0.448 60.136,-0.16533c4.28,0.06 8.55733,0.33467 12.836,0.516c0.856,0.036 1.728,0.04133 2.29067,0.87467c0.472,0.69733 0.26133,1.37867 -0.552,1.54c-0.49733,0.09867 -1.02267,0.05067 -1.53467,0.07867c-9.75867,0.54667 -19.524,0.32267 -29.28667,0.28267c-34.096,-0.13733 -68.18933,0.03467 -102.28373,0.392c-4.2792,0.04533 -8.57187,0.22 -12.83333,-0.33867c-1.02667,-0.13467 -2.84013,0.07333 -2.72813,-1.232c0.12853,-1.50533 1.82707,-0.58667 2.78693,-0.592c9.938,-0.052 19.86507,-0.51867 29.79947,-0.69867c13.78907,-0.25067 27.5788,-0.44 41.36947,-0.65733" id="path204"/>
  <path fill="#1d262d" fill-rule="nonzero" d="m1.75335,1.5655c0.2828,0.09333 0.548,0.12933 0.75733,0.25867c1.60773,0.98667 3.00307,2.22267 4.2036,3.67733c0.2276,0.27467 0.35267,0.62667 0.16253,0.93333c-0.19893,0.32133 -0.58853,0.356 -0.9068,0.192c-1.8296,-0.94533 -3.4792,-2.124 -4.72493,-3.79467c-0.20267,-0.27067 -0.31987,-0.64533 -0.11933,-0.944c0.1172,-0.17333 0.41987,-0.22267 0.6276,-0.32267" id="path206"/>
  <path fill="#1d262d" fill-rule="nonzero" d="m168.64642,6.21084c0.84533,-0.008 2.07067,-0.19333 2.19467,0.76267c0.14533,1.124 -1.236,0.944 -1.95733,1.12267c-1.228,0.304 -2.46667,0.78267 -3.776,0.56c-0.51467,-0.088 -1.01467,-0.328 -1.06667,-0.91867c-0.04667,-0.52667 0.472,-0.69333 0.84133,-0.824c1.212,-0.42933 2.47467,-0.65467 3.764,-0.70267" id="path208"/>
  <path fill="#1d262d" fill-rule="nonzero" d="m163.91175,4.6255c-0.78267,-0.052 -1.14533,-0.25733 -1.31733,-0.68133c-0.13867,-0.33867 0.00533,-0.65867 0.25067,-0.912c1.016,-1.05067 2.28533,-1.72 3.588,-2.316c0.52133,-0.23867 1.004,0.032 1.30533,0.48267c0.30667,0.45867 -0.03867,0.796 -0.35067,1.06933c-1.13467,0.99067 -2.24133,2.03467 -3.476,2.35733" id="path210"/>
  <path fill="#1d262d" fill-rule="nonzero" d="m163.39442,12.1735c2.60933,-0.29333 4.42133,1.15867 6.16,2.76c0.22533,0.20667 0.11733,0.48133 -0.06533,0.66667c-0.104,0.10667 -0.332,0.22133 -0.44133,0.17733c-2.06933,-0.856 -4.252,-1.53733 -5.65333,-3.604" id="path212"/>
  <path fill="#1d262d" fill-rule="nonzero" d="m6.35495,13.27617c-0.86827,1.184 -1.66933,2.13733 -2.74587,2.844c-0.66147,0.43467 -1.3416,0.73067 -2.15,0.42133c-0.47547,-0.18133 -0.7156,-0.53067 -0.4672,-0.97733c0.562,-1.00667 1.58133,-1.508 2.51467,-2.092c0.8072,-0.50667 1.62027,-0.99067 2.8484,-0.196" id="path214"/>
  <path fill="#1d262d" fill-rule="nonzero" d="m83.93175,16.7455c-0.056,0.276 -0.096,0.70667 -0.24,1.1c-0.13867,0.384 -0.27333,0.82933 -0.816,0.86667c-0.58533,0.04 -1.008,-0.23067 -1.22933,-0.73467c-0.24133,-0.54533 -0.45333,-1.11867 -0.57067,-1.7c-0.168,-0.828 -0.44,-1.788 0.82267,-2.028c0.95867,-0.18267 1.748,0.48 1.96667,1.58c0.04933,0.24933 0.03867,0.51067 0.06667,0.916" id="path216"/>
  <path fill="#1d262d" fill-rule="nonzero" d="m90.00642,16.13884c-0.04267,0.77067 -0.596,1.06667 -1.34,1.05333c-0.904,-0.01333 -1.73333,-0.32533 -1.84267,-1.33067c-0.09467,-0.86267 0.49467,-1.4 1.34133,-1.52133c0.85467,-0.124 1.772,0.768 1.84133,1.79867" id="path218"/>
  <path fill="#1d262d" fill-rule="nonzero" d="m76.03308,14.4935c1.20267,0.11467 1.70933,0.67467 1.664,1.676c-0.03867,0.824 -0.56667,1.17467 -1.34267,1.15067c-0.948,-0.028 -1.63867,-0.384 -1.60133,-1.484c0.03333,-0.94133 0.612,-1.296 1.28,-1.34267" id="path220"/>
  <path fill="#1d262d" fill-rule="nonzero" d="m0.28562,8.51217c2.62293,-0.48533 3.25427,-0.324 4.9272,1.18267c-1.75893,0.29467 -3.30947,0.40667 -4.9272,-1.18267" id="path222"/>
 </g>
</svg>