<svg width="595" height="432" xmlns="http://www.w3.org/2000/svg">
 <title>black laurel wreath</title>

 <metadata id="metadata7">image/svg+xml</metadata>
 <g>
  <title>background</title>
  <rect fill="none" id="canvas_background" height="434" width="597" y="-1" x="-1"/>
 </g>
 <g>
  <title>Layer 1</title>
  <g id="layer1">
   <g id="g2249">
    <g id="svg_1">
     <path id="path5202" d="m98.19491,328.97344c0,0 -6.4897,-7.00422 -15.2944,-9.6254c-8.80469,-2.62122 -9.64025,1.63473 -19.81171,0.09631c-9.78261,-1.47964 -11.19194,-3.63736 -20.30957,-10.98669c-8.94092,-7.20697 -10.77466,-10.75009 -18.53457,-16.51853c-7.7599,-5.76846 -6.05062,-4.99615 -12.11178,-7.50866c-6.06117,-2.51258 -12.13288,-2.54163 -12.13288,-2.54163c0,0 11.71611,-0.13501 23.97224,0.87878c12.25612,1.01389 13.875,0.16193 25.05229,3.17658c11.17726,3.01465 11.41323,2.44263 19.65682,8.88205c8.24357,6.43945 12.27151,15.72436 15.79225,20.70837c3.52074,4.98404 11.48256,9.03403 10.92021,8.55377c2.97016,6.3187 2.8011,4.88504 2.8011,4.88504l0,0.00001z" stroke-width="0.74426px" stroke="#ffffff" fill-rule="evenodd" fill="#ffffff"/>
     <path id="path2231" d="m199.28419,41.61501c-75.77153,33.43548 -128.82545,104.1597 -128.82545,189.24823c0,89.36499 58.10222,165.82327 140.04353,196.65194l0,-5.29275c-79.04767,-30.54517 -134.86035,-104.71982 -134.86035,-191.35919c0,-56.94672 24.10571,-108.50075 63.07826,-145.83203c17.95528,-17.19909 39.40599,-31.77678 62.76668,-42.06356c-0.81705,-1.43531 -1.53546,0.15692 -2.20264,-1.35264l-0.00003,0z" stroke-miterlimit="4" stroke-linejoin="round" stroke-linecap="round" stroke-width="6.53273" stroke="#ffffff" fill="#ffffff"/>
     <path id="path3205" d="m155.73664,395.74565c0,0 -5.02948,-9.90298 -3.35299,-20.34131c1.67651,-10.43832 7.39987,-9.46685 11.17666,-20.87664c3.63242,-10.97367 1.75382,-13.40152 -2.23532,-26.22965c-3.91186,-12.57953 -7.26486,-16.05896 -10.05902,-26.76492c-2.79416,-10.70597 -2.79416,-8.56476 -2.51474,-16.05893c0.27942,-7.49417 3.63242,-13.91782 3.63242,-13.91782c0,0 -6.70601,12.31189 -12.29433,25.69437c-5.58833,13.38241 -7.54423,14.72064 -10.05899,27.83551c-2.51474,13.11478 -3.353,13.11478 0,24.62372c3.353,11.50891 12.57373,19.80603 16.76497,25.69436c4.19125,5.88825 4.75009,16.05893 4.47067,15.25598c6.14716,5.88831 4.47068,5.08533 4.47068,5.08533l-0.00001,0z" stroke-width="0.9258px" stroke="#ffffff" fill-rule="evenodd" fill="#ffffff"/>
     <path id="path5188" d="m99.62049,327.1031c0,0 -0.90347,-9.33212 3.61753,-17.24649c4.52099,-7.91442 8.71188,-5.55828 15.17868,-13.67367c6.21957,-7.80521 5.49173,-10.27097 6.3027,-21.66373c0.79524,-11.17196 -0.76613,-14.88769 0.33036,-24.24838c1.09648,-9.36072 0.43885,-7.64249 2.95976,-13.57919c2.52089,-5.9368 7.12384,-10.16774 7.12384,-10.16774c0,0 -9.04149,8.03236 -17.53508,17.23176c-8.49359,9.19937 -10.43878,9.73444 -16.4393,19.56571c-6.00057,9.8312 -6.65808,9.60034 -7.56284,19.75924c-0.90475,10.159 3.77947,19.35697 5.2585,25.23658c1.47902,5.8796 -1.20641,14.19497 -1.17895,13.47366c3.01319,6.41839 1.9448,5.31225 1.9448,5.31225z" stroke-width="0.7823px" stroke="#ffffff" fill-rule="evenodd" fill="#ffffff"/>
     <path id="path5190" d="m74.15104,236.74641c0,0 2.63321,-7.49133 9.23732,-11.95353c6.60411,-4.46216 9.21535,-1.15335 17.5009,-5.07398c7.96878,-3.77072 8.26017,-5.92506 13.05707,-14.38606c4.70393,-8.29704 4.75896,-11.70966 9.05588,-18.5076c4.29691,-6.79799 3.1309,-5.71341 7.36523,-9.37189c4.23432,-3.65846 9.57204,-5.26199 9.57204,-5.26199c0,0 -10.38394,2.9359 -20.73766,6.96416c-10.35371,4.02824 -12.15559,3.7435 -20.67715,9.14886c-8.52156,5.40532 -8.98149,4.99279 -13.40903,12.47254c-4.42755,7.4797 -3.88661,16.22036 -4.79347,21.26564c-0.90688,5.04528 -6.13876,10.47201 -5.85481,9.92779c0.1663,6.00788 -0.31632,4.77606 -0.31632,4.77606z" stroke-width="0.68404px" stroke="#ffffff" fill-rule="evenodd" fill="#ffffff"/>
     <path id="path5192" d="m88.67195,157.42044c0,0 6.03041,-8.41853 13.03535,-10.80046c7.00496,-2.38197 8.47536,1.12909 16.83413,-0.38676c8.03921,-1.45791 8.8496,-3.2811 15.27458,-9.5929c6.30047,-6.18945 7.22334,-9.17198 12.77858,-14.14026c5.55523,-4.96828 4.24243,-4.28725 8.93802,-6.51445c4.69558,-2.22717 9.8443,-2.39426 9.8443,-2.39426c0,0 -9.96921,0.16393 -20.19133,1.29367c-10.22213,1.12975 -11.74866,0.46111 -20.69719,3.22532c-8.94852,2.76419 -9.25112,2.29522 -15.0969,7.83151c-5.84579,5.53631 -7.60429,13.33394 -9.70146,17.55159c-2.09718,4.21763 -8.13112,7.76506 -7.73968,7.35336c-1.39113,5.31192 -3.2784,6.57364 -3.2784,6.57364z" stroke-width="0.62642px" stroke="#ffffff" fill-rule="evenodd" fill="#ffffff"/>
     <path id="path5194" d="m125.32159,96.84008c0,0 5.86266,-3.53169 13.29167,-3.81444c7.42903,-0.28276 7.79042,2.64189 16.25904,3.29128c8.14489,0.62457 9.46661,-0.55951 17.51321,-3.88918c7.89069,-3.26516 9.66653,-5.2878 16.47778,-7.80287c6.81128,-2.51509 5.34897,-2.28757 10.51715,-2.94616c5.16816,-0.65863 10.15558,0.3117 10.15558,0.3117c0,0 -9.60922,-1.99754 -19.74945,-3.33033c-10.14023,-1.33279 -11.40442,-2.15477 -20.81146,-2.00083c-9.40704,0.15393 -9.55716,-0.2593 -16.81671,2.61659c-7.25958,2.87589 -11.27495,8.30309 -14.54582,10.99494c-3.27088,2.69184 -10.11686,4.0481 -9.61849,3.82502c-2.92064,3.65606 -2.6725,2.74428 -2.6725,2.74428z" stroke-width="0.55215px" stroke="#ffffff" fill-rule="evenodd" fill="#ffffff"/>
     <path id="path5196" d="m174.95588,56.50429c0,0 6.43729,-2.44693 13.79532,-1.42554c7.35806,1.02136 7.15586,3.96007 15.35831,6.07974c7.88892,2.03865 9.41409,1.10564 17.96017,-0.76066c8.38041,-1.83012 10.512,-3.50816 17.68815,-4.78962c7.1762,-1.2815 5.69509,-1.31355 10.90191,-1.05714c5.20685,0.25641 9.92545,2.08274 9.92545,2.08274c0,0 -9.0669,-3.64467 -18.78259,-6.72862c-9.71567,-3.08397 -10.80191,-4.11326 -20.08017,-5.60722c-9.27823,-1.49402 -9.34708,-1.92656 -17.03281,-0.36874c-7.68573,1.5578 -12.66815,6.19144 -16.39716,8.26593c-3.729,2.0745 -10.71841,2.21057 -10.18591,2.07842c-3.56845,3.08375 -3.15066,2.23071 -3.15066,2.23071l-0.00001,0z" stroke-width="0.55215px" stroke="#ffffff" fill-rule="evenodd" fill="#ffffff"/>
     <path id="path5198" d="m146.48446,388.36729c0,0 -10.03666,-5.341 -21.01114,-4.34445c-10.97445,0.99658 -10.28608,6.48703 -22.39209,9.42273c-11.64318,2.8234 -14.06726,0.90097 -27.2116,-3.61902c-12.88961,-4.43234 -16.32619,-7.81494 -27.32636,-11.07907c-11.00018,-3.2641 -8.76849,-3.14197 -16.59524,-3.30417c-7.82676,-0.16214 -14.71176,2.65552 -14.71176,2.65552c0,0 13.21208,-5.66583 27.47671,-10.20929c14.26463,-4.5434 15.77025,-6.32446 29.58179,-7.96435c13.81158,-1.63993 13.85907,-2.43595 25.66447,1.40466c11.80539,3.84061 19.93091,13.07019 25.83064,17.38617c5.89974,4.31598 16.46862,5.42688 15.64755,5.11572c5.78896,6.1734 5.04703,4.53555 5.04703,4.53555z" stroke-width="0.92255px" stroke="#ffffff" fill-rule="evenodd" fill="#ffffff"/>
     <path id="path5204" d="m74.1896,246.81459c0,0 -2.98894,-7.17688 -8.51568,-10.97497c-5.52677,-3.7981 -7.01458,-0.27085 -13.71784,-3.37293c-6.44699,-2.98346 -6.95993,-5.09146 -11.69191,-13.02467c-4.64029,-7.77944 -5.15036,-11.15714 -9.28174,-17.48911c-4.13136,-6.332 -3.11479,-5.36723 -6.76797,-8.59297c-3.6532,-3.22575 -7.8448,-4.30998 -7.8448,-4.30998c0,0 8.12904,1.92729 16.38575,4.94025c8.25672,3.01295 9.55815,2.56015 16.6411,7.11164c7.08296,4.55153 7.36842,4.09905 11.69071,11.09447c4.32228,6.99542 5.12147,15.71123 6.48977,20.62673c1.3683,4.9154 6.00675,9.79959 5.72068,9.28698c0.70222,5.97129 0.89193,4.70456 0.89193,4.70456z" stroke-width="0.5926px" stroke="#ffffff" fill-rule="evenodd" fill="#ffffff"/>
     <path id="path5206" d="m83.03587,161.72778c0,0 -1.00415,-6.75227 -5.42816,-10.9226c-4.42403,-4.17034 -6.84809,-1.29921 -12.62165,-5.03653c-5.55282,-3.5945 -5.48764,-5.52255 -8.00669,-13.20252c-2.47025,-7.53111 -2.05813,-10.57329 -4.41852,-16.75676c-2.3604,-6.18351 -1.61878,-5.1828 -4.34923,-8.56723c-2.73044,-3.38438 -6.57257,-4.97043 -6.57257,-4.97043c0,0 7.49884,2.92188 14.82937,6.81611c7.33056,3.89422 8.73746,3.69361 14.49282,8.7608c5.75538,5.06718 6.15971,4.71316 8.52865,11.50795c2.36898,6.79474 0.79534,14.56656 0.81324,19.08851c0.01789,4.52196 5.04542,11.02205 4.90206,10.5288c-0.92549,5.34799 -2.16932,2.7539 -2.16932,2.7539z" stroke-width="0.56443px" stroke="#ffffff" fill-rule="evenodd" fill="#ffffff"/>
     <path id="path5210" d="m111.80916,111.10277c0,0 3.18254,-7.60629 2.39679,-13.93292c-0.78577,-6.32663 -3.85103,-6.15812 -5.74778,-13.21256c-1.8242,-6.78477 -0.79603,-8.09411 1.46749,-15.43675c2.21963,-7.20033 4.04582,-9.02956 5.64927,-15.19575c1.60346,-6.16617 1.58107,-4.89297 1.51027,-9.36911c-0.07078,-4.47613 -1.79345,-8.53539 -1.79345,-8.53539c0,0 3.45092,7.80022 6.29399,16.15713c2.84312,8.35692 3.87317,9.29249 5.0784,17.27053c1.20524,7.97804 1.65271,8.03796 -0.25746,14.64164c-1.91016,6.60367 -6.91889,10.8781 -9.21772,14.07976c-2.29881,3.20163 -2.70347,9.20932 -2.54594,8.75186c-3.34288,3.0618 -2.83386,4.78156 -2.83386,4.78156z" stroke-width="0.5222px" stroke="#ffffff" fill-rule="evenodd" fill="#ffffff"/>
     <path id="path5212" d="m198.45515,42.19283c0,0 6.50555,-2.73296 11.39755,-6.93782c4.89206,-4.20486 3.29959,-4.92041 8.20175,-10.43467c4.71476,-5.30346 6.37208,-5.2103 13.76932,-7.52145c7.25388,-2.26636 9.78031,-1.82092 15.83133,-4.00237c6.051,-2.18145 4.96875,-1.48128 8.6926,-4.06377c3.72387,-2.58248 6.20282,-6.26617 6.20282,-6.26617c0,0 -4.68735,7.19232 -10.17172,14.20697c-5.48438,7.01466 -5.71293,8.37578 -11.76584,13.85163c-6.05286,5.47587 -5.86093,5.87169 -12.44574,8.05183c-6.58481,2.18012 -12.8899,0.80652 -16.82578,0.75295c-3.93585,-0.05356 -11.29559,4.14338 -11.31369,3.14476c-1.02014,-0.48142 -1.5726,-0.78189 -1.5726,-0.78189z" stroke-width="0.51839px" stroke="#ffffff" fill-rule="evenodd" fill="#ffffff"/>
     <path id="path6198" d="m156.494,67.38683c0,0 5.70978,-5.76823 7.50134,-11.82583c1.79157,-6.05761 -1.06115,-7.15216 0.00888,-14.32196c1.02918,-6.89569 2.48227,-7.66478 7.44767,-13.40294c4.8692,-5.62697 7.25351,-6.5428 11.15304,-11.48261c3.89957,-4.93983 3.37494,-3.79422 5.08344,-7.8826c1.70846,-4.08838 1.75048,-8.47089 1.75048,-8.47089c0,0 0.04712,8.47863 -0.67868,17.21478c-0.72576,8.73617 -0.16009,10.00385 -2.22448,17.72986c-2.06436,7.72603 -1.6814,7.96247 -6.03299,13.17426c-4.35157,5.21178 -10.5969,7.05015 -13.95435,9.01835c-3.35742,1.96818 -6.10461,7.2521 -5.78024,6.90129c-4.25101,1.4165 -4.27411,3.34829 -4.27411,3.34829z" stroke-width="0.51839px" stroke="#ffffff" fill-rule="evenodd" fill="#ffffff"/>
     <path id="path6329" d="m493.17381,330.59038c0,0 6.69958,-7.00418 15.789,-9.62537c9.08954,-2.62124 9.95209,1.63471 20.45258,0.09626c10.099,-1.47962 11.55389,-3.6373 20.96649,-10.9867c9.2301,-7.20697 11.12317,-10.75006 19.13403,-16.51852c8.01087,-5.76844 6.24634,-4.9961 12.50354,-7.50864c6.2572,-2.51257 12.52527,-2.54163 12.52527,-2.54163c0,0 -12.09503,-0.13504 -24.74762,0.87885c-12.65253,1.01382 -14.32373,0.16183 -25.86255,3.17651c-11.53882,3.01465 -11.78241,2.44263 -20.2926,8.88211c-8.51019,6.43937 -12.66846,15.72434 -16.3031,20.70838c-3.63452,4.98395 -11.85388,9.03403 -11.27332,8.55371c-3.06628,6.31867 -2.89172,4.88504 -2.89172,4.88504z" stroke-width="0.7562px" stroke="#ffffff" fill-rule="evenodd" fill="#ffffff"/>
     <path id="path6333" d="m389.81501,43.23197c78.22226,33.43547 132.9921,104.15985 132.9921,189.24845c0,89.36515 -59.98138,165.82309 -144.57294,196.65134l0,-5.29236c81.60419,-30.54498 139.22199,-104.72018 139.22199,-191.35897c0,-56.947 -24.88568,-108.50124 -65.11859,-145.83209c-18.53583,-17.19929 -40.68006,-31.777 -64.79663,-42.06372c0.84338,-1.43538 1.58535,0.15687 2.27407,-1.35265l0,0z" stroke-miterlimit="4" stroke-linejoin="round" stroke-linecap="round" stroke-width="6.53273" stroke="#ffffff" fill="#ffffff"/>
     <path id="path6335" d="m433.77086,397.3626c0,0 5.1922,-9.90302 3.46148,-20.34134c-1.73071,-10.43833 -7.63916,-9.46677 -11.53814,-20.87665c-3.74988,-10.9736 -1.81055,-13.40149 2.30767,-26.22965c4.03833,-12.57949 7.49976,-16.05892 10.38428,-26.76489c2.88458,-10.70596 2.88458,-8.56476 2.59607,-16.05896c-0.28839,-7.49417 -3.74988,-13.91772 -3.74988,-13.91772c0,0 6.92291,12.31182 12.69202,25.6943c5.76904,13.38242 7.78821,14.7207 10.38434,27.83548c2.59607,13.11487 3.46142,13.11487 0,24.62372c-3.46149,11.50894 -12.98041,19.80609 -17.30725,25.69436c-4.32679,5.88825 -4.90375,16.05896 -4.6153,15.25599c-6.34595,5.88833 -4.61529,5.08535 -4.61529,5.08535l0,0.00001z" stroke-width="0.94065px" stroke="#ffffff" fill-rule="evenodd" fill="#ffffff"/>
     <path id="path6337" d="m491.70207,328.72008c0,0 0.93274,-9.33215 -3.7345,-17.24655c-4.66723,-7.9144 -8.99371,-5.55826 -15.66968,-13.67368c-6.42071,-7.8052 -5.66931,-10.27087 -6.50653,-21.6637c-0.82098,-11.17196 0.79096,-14.88772 -0.341,-24.24838c-1.13196,-9.36072 -0.45306,-7.64245 -3.05548,-13.57922c-2.60248,-5.93671 -7.35425,-10.16773 -7.35425,-10.16773c0,0 9.33386,8.03241 18.10217,17.23175c8.76838,9.19937 10.77643,9.73447 16.97107,19.56574c6.19464,9.8312 6.87342,9.60034 7.80738,19.75924c0.93408,10.159 -3.90168,19.35703 -5.42853,25.23658c-1.52686,5.87961 1.24542,14.19497 1.2171,13.47366c-3.11072,6.4184 -2.00775,5.31229 -2.00775,5.31229z" stroke-width="0.79485px" stroke="#ffffff" fill-rule="evenodd" fill="#ffffff"/>
     <path id="path6339" d="m517.99534,238.36336c0,0 -2.71838,-7.49136 -9.53613,-11.95354c-6.81769,-4.46217 -9.51337,-1.15336 -18.06689,-5.07393c-8.22657,-3.77073 -8.52741,-5.92506 -13.47944,-14.38609c-4.85607,-8.29704 -4.9129,-11.70962 -9.34881,-18.5076c-4.43585,-6.798 -3.23212,-5.71342 -7.60346,-9.3719c-4.37127,-3.65848 -9.88159,-5.26199 -9.88159,-5.26199c0,0 10.71985,2.93591 21.40839,6.96418c10.6886,4.02823 12.54883,3.7435 21.34594,9.14884c8.79718,5.40533 9.27204,4.9928 13.84272,12.47252c4.5708,7.47972 4.01233,16.22043 4.94854,21.26564c0.93616,5.0453 6.33734,10.47203 6.04413,9.92781c-0.17163,6.00787 0.3266,4.77606 0.3266,4.77606z" stroke-width="0.69502px" stroke="#ffffff" fill-rule="evenodd" fill="#ffffff"/>
     <path id="path6341" d="m503.00474,159.03738c0,0 -6.2254,-8.41854 -13.45697,-10.80047c-7.2315,-2.38191 -8.74951,1.12912 -17.3786,-0.38673c-8.29919,-1.45792 -9.1358,-3.28113 -15.76862,-9.5929c-6.50427,-6.18947 -7.45697,-9.17201 -13.19189,-14.14026c-5.73492,-4.96828 -4.3797,-4.28728 -9.22711,-6.51447c-4.84741,-2.22717 -10.16272,-2.39427 -10.16272,-2.39427c0,0 10.29162,0.16393 20.84442,1.29369c10.55273,1.12974 12.1286,0.46112 21.36664,3.22533c9.23791,2.76419 9.55029,2.29519 15.58514,7.83149c6.03491,5.5363 7.85028,13.33394 10.01532,17.55158c2.16498,4.21763 8.39404,7.76507 7.98999,7.35336c1.4361,5.31195 3.3844,6.57366 3.3844,6.57366l0,-0.00001z" stroke-width="0.63647px" stroke="#ffffff" fill-rule="evenodd" fill="#ffffff"/>
     <path id="path6343" d="m465.16972,98.45702c0,0 -6.05231,-3.5317 -13.72156,-3.81443c-7.66937,-0.28277 -8.04242,2.64187 -16.78497,3.29129c-8.40826,0.62455 -9.77277,-0.55954 -18.07959,-3.8892c-8.14594,-3.26515 -9.97925,-5.28781 -17.0108,-7.80288c-7.03159,-2.51509 -5.52195,-2.28756 -10.85727,-2.94614c-5.33533,-0.65863 -10.48407,0.31169 -10.48407,0.31169c0,0 9.92001,-1.99754 20.38821,-3.33031c10.4682,-1.33281 11.77332,-2.15479 21.48462,-2.00085c9.7113,0.15394 9.86627,-0.25931 17.3606,2.61659c7.49438,2.8759 11.63964,8.3031 15.01629,10.99494c3.37665,2.69185 10.44403,4.04809 9.92963,3.82505c3.01507,3.65603 2.75891,2.74425 2.75891,2.74425z" stroke-width="0.56101px" stroke="#ffffff" fill-rule="evenodd" fill="#ffffff"/>
     <path id="path6345" d="m413.9301,58.12122c0,0 -6.64557,-2.44692 -14.24155,-1.42553c-7.59604,1.02136 -7.3873,3.96007 -15.85507,6.07975c-8.14405,2.03864 -9.71857,1.10564 -18.54108,-0.76065c-8.65146,-1.83014 -10.85196,-3.50818 -18.26025,-4.78965c-7.40833,-1.28147 -5.87931,-1.31354 -11.25452,-1.05712c-5.37525,0.25639 -10.24649,2.08273 -10.24649,2.08273c0,0 9.36017,-3.64465 19.3901,-6.72861c10.02991,-3.08397 11.15131,-4.11325 20.72965,-5.60723c9.57834,-1.494 9.64938,-1.92654 17.58368,-0.36874c7.93436,1.55781 13.07791,6.19144 16.92755,8.26595c3.84964,2.07449 11.06509,2.21056 10.51535,2.07841c3.6839,3.08375 3.25263,2.23069 3.25263,2.23069z" stroke-width="0.56101px" stroke="#ffffff" fill-rule="evenodd" fill="#ffffff"/>
     <path id="path6347" d="m443.32231,390.79369c0,0 10.36133,-5.34101 21.69073,-4.34442c11.32941,0.99658 10.61878,6.48703 23.1164,9.42272c12.01971,2.82346 14.52228,0.90101 28.09167,-3.61898c13.30658,-4.43241 16.85431,-7.81498 28.21021,-11.0791c11.35601,-3.2641 9.05212,-3.14197 17.13202,-3.30414c8.07989,-0.16214 15.18768,2.65548 15.18768,2.65548c0,0 -13.63947,-5.66583 -28.36548,-10.20923c-14.72601,-4.54345 -16.28027,-6.32446 -30.53857,-7.96444c-14.25831,-1.63989 -14.30738,-2.43589 -26.49457,1.40469c-12.18726,3.84067 -20.57556,13.07019 -26.66614,17.38614c-6.09058,4.31607 -17.00128,5.42691 -16.15363,5.11575c-5.97619,6.17343 -5.21032,4.53553 -5.21032,4.53553z" stroke-width="0.93735px" stroke="#ffffff" fill-rule="evenodd" fill="#ffffff"/>
     <path id="path6349" d="m517.95555,248.43154c0,0 3.08557,-7.17688 8.79114,-10.97501c5.7055,-3.79804 7.24139,-0.27085 14.1615,-3.37289c6.65551,-2.98346 7.18499,-5.09147 12.07006,-13.02466c4.79035,-7.77945 5.31696,-11.15712 9.58197,-17.48914c4.26496,-6.33197 3.21552,-5.36722 6.98688,-8.59297c3.7713,-3.22575 8.09851,-4.30998 8.09851,-4.30998c0,0 -8.39197,1.92729 -16.91571,4.94026c-8.5238,3.01297 -9.86731,2.56015 -17.17938,7.11166c-7.31201,4.5515 -7.60675,4.09902 -12.06879,11.09446c-4.46209,6.9954 -5.28717,15.71122 -6.6997,20.62669c-1.41254,4.91546 -6.20105,9.79962 -5.90571,9.28705c-0.72491,5.97128 -0.92077,4.70453 -0.92077,4.70453z" stroke-width="0.60211px" stroke="#ffffff" fill-rule="evenodd" fill="#ffffff"/>
     <path id="path6351" d="m508.82316,163.34473c0,0 1.03656,-6.75226 5.6037,-10.92259c4.56714,-4.17035 7.06958,-1.2992 13.02991,-5.03655c5.73242,-3.5945 5.6651,-5.52255 8.26569,-13.2025c2.55011,-7.53113 2.12463,-10.5733 4.5614,-16.75679c2.4367,-6.18348 1.67114,-5.1828 4.48986,-8.56718c2.81879,-3.38442 6.78516,-4.97046 6.78516,-4.97046c0,0 -7.74139,2.92187 -15.30902,6.8161c-7.56763,3.89421 -9.02008,3.69365 -14.96155,8.7608c-5.94153,5.06719 -6.35889,4.71317 -8.8045,11.50794c-2.44562,6.79478 -0.82105,14.56657 -0.83954,19.08853c-0.01843,4.52194 -5.20862,11.02205 -5.06061,10.52878c0.95538,5.34799 2.2395,2.75392 2.2395,2.75392z" stroke-width="0.57348px" stroke="#ffffff" fill-rule="evenodd" fill="#ffffff"/>
     <path id="path6353" d="m479.11918,112.71974c0,0 -3.28546,-7.60634 -2.4743,-13.93294c0.81122,-6.32663 3.97559,-6.15813 5.93365,-13.21257c1.88324,-6.78476 0.82184,-8.09411 -1.51495,-15.43675c-2.29138,-7.20031 -4.17664,-9.02955 -5.83197,-15.19574c-1.65533,-6.16617 -1.6322,-4.89297 -1.55914,-9.36911c0.07312,-4.47613 1.8515,-8.5354 1.8515,-8.5354c0,0 -3.56256,7.80023 -6.49762,16.15714c-2.93506,8.35691 -3.99842,9.29248 -5.24262,17.27053c-1.2442,7.97803 -1.70617,8.03795 0.26575,14.64162c1.97198,6.60369 7.1427,10.87813 9.51587,14.07976c2.37323,3.20166 2.79095,9.20935 2.62829,8.75186c3.45105,3.06181 2.92554,4.7816 2.92554,4.7816z" stroke-width="0.53057px" stroke="#ffffff" fill-rule="evenodd" fill="#ffffff"/>
     <path id="path6355" d="m389.6707,43.80977c0,0 -6.71594,-2.73295 -11.76618,-6.93781c-5.05029,-4.20487 -3.40631,-4.92041 -8.46701,-10.43466c-4.86725,-5.30347 -6.57815,-5.21032 -14.21466,-7.52146c-7.48852,-2.26637 -10.09665,-1.82092 -16.34338,-4.00236c-6.24671,-2.18148 -5.12946,-1.48131 -8.97379,-4.0638c-3.8443,-2.58248 -6.40344,-6.26616 -6.40344,-6.26616c0,0 4.83896,7.19233 10.50073,14.20697c5.66178,7.01466 5.89771,8.37579 12.1464,13.85164c6.24865,5.47587 6.0505,5.8717 12.84829,8.05183c6.79779,2.18013 13.3068,0.80652 17.36997,0.75296c4.06317,-0.05357 11.66095,4.14337 11.67962,3.14474c1.05313,-0.48141 1.62345,-0.78189 1.62345,-0.78189z" stroke-width="0.52671px" stroke="#ffffff" fill-rule="evenodd" fill="#ffffff"/>
     <path id="path6357" d="m432.98906,69.00378c0,0 -5.89441,-5.76824 -7.74396,-11.82583c-1.84949,-6.05762 1.09552,-7.15215 -0.00916,-14.32195c-1.0625,-6.8957 -2.56256,-7.66479 -7.68854,-13.40296c-5.02673,-5.62695 -7.48815,-6.5428 -11.51385,-11.48262c-4.02564,-4.93981 -3.48407,-3.7942 -5.2478,-7.8826c-1.76371,-4.08836 -1.8071,-8.47087 -1.8071,-8.47087c0,0 -0.04865,8.47864 0.70059,17.21477c0.74927,8.73617 0.16531,10.00385 2.29648,17.72986c2.13113,7.72603 1.73575,7.96248 6.22812,13.17427c4.49231,5.21176 10.93969,7.05015 14.4057,9.01835c3.466,1.96817 6.30206,7.2521 5.96722,6.90128c4.38843,1.41651 4.41229,3.3483 4.41229,3.3483l0.00001,0z" stroke-width="0.52671px" stroke="#ffffff" fill-rule="evenodd" fill="#ffffff"/>
    </g>
   </g>
  </g>
 </g>
</svg>