<svg width="28.3" height="28.3" xmlns="http://www.w3.org/2000/svg">

 <g>
  <title>background</title>
  <rect fill="none" id="canvas_background" height="602" width="802" y="-1" x="-1"/>
 </g>
 <g>
  <title>Layer 1</title>
  <g id="svg_1">
   <path id="svg_3" fill="#ffffff" d="m8.495,3.628c0,0 -3.556,1.322 -5.656,6.294l11.585,-2.19l-5.929,-4.104z"/>
   <path id="svg_4" fill="#ffffff" d="m2.664,10.631c0,0 -1.568,3.455 0.481,8.448l6.612,-9.763l-7.093,1.315z"/>
   <path id="svg_5" fill="#ffffff" d="m3.588,19.571c0,0 1.322,3.556 6.294,5.656l-2.189,-11.587l-4.105,5.931z"/>
   <path id="svg_6" fill="#ffffff" d="m10.591,25.401c0,0 3.455,1.567 8.448,-0.481l-9.763,-6.61l1.315,7.091z"/>
   <path id="svg_7" fill="#ffffff" d="m19.722,24.629c0,0 3.557,-1.322 5.656,-6.296l-11.586,2.189l5.93,4.107z"/>
   <path id="svg_8" fill="#ffffff" d="m25.071,9.177l-6.61,9.763l7.093,-1.316c0,0.001 1.566,-3.454 -0.483,-8.447z"/>
   <path id="svg_9" fill="#ffffff" d="m24.628,8.685c0,0 -1.322,-3.556 -6.295,-5.655l2.189,11.585l4.106,-5.93z"/>
   <path id="svg_10" fill="#ffffff" d="m17.624,2.855c0,0 -3.453,-1.568 -8.447,0.482l9.764,6.61l-1.317,-7.092z"/>
   <path id="svg_11" fill="#ffffff" d="m14.151,0c-7.815,0 -14.151,6.336 -14.151,14.15c0,7.813 6.335,14.15 14.151,14.15c7.813,0 14.149,-6.338 14.149,-14.15c0.001,-7.814 -6.335,-14.15 -14.149,-14.15zm0,27.206c-7.199,0 -13.057,-5.857 -13.057,-13.056s5.858,-13.056 13.057,-13.056c7.197,0 13.055,5.857 13.055,13.056c0,7.199 -5.858,13.056 -13.055,13.056z"/>
  </g>
  <g id="svg_12"/>
  <g id="svg_13"/>
  <g id="svg_14"/>
  <g id="svg_15"/>
  <g id="svg_16"/>
  <g id="svg_17"/>
  <g id="svg_18"/>
  <g id="svg_19"/>
  <g id="svg_20"/>
  <g id="svg_21"/>
  <g id="svg_22"/>
  <g id="svg_23"/>
  <g id="svg_24"/>
  <g id="svg_25"/>
  <g id="svg_26"/>
 </g>
</svg>